<svg width="4200" height="2400" viewBox="0 0 4200 2400" fill="none" xmlns="http://www.w3.org/2000/svg">
<g id="602da5d523c5f4e5dff56c77_homepage-4-bg 1" clip-path="url(#clip0)">
<g id="Group">
<path id="Vector" d="M4200 0H0V2400H4200V0Z" fill="white"/>
<path id="Vector_2" d="M4200 0H0V946H4200V0Z" fill="url(#paint0_linear)"/>
<path id="Vector_3" opacity="0.25" d="M2245.5 638.978C2520.17 617.657 2628.33 488.978 2873.33 593.977L2884.33 1534.98L1325.33 1545.98C1313 1243.98 1294.93 679.378 1301.33 668.978C1309.33 655.978 1419 506.978 1683 568.478C1947 629.978 2095 650.661 2245.5 638.978Z" fill="#2EB67D"/>
<path id="Vector_4" opacity="0.25" d="M1972 553.661C2298.08 553.662 2323 731.831 2885 731.831V881.831H1337C1254.33 822.498 1185.6 673.661 1360 669.661C1578 664.661 1699 553.661 1972 553.661Z" fill="#2EB67D"/>
<path id="Vector_5" d="M2160.54 797.954C2615.06 795.184 2752.22 467.68 3100.76 491.21C3449.28 514.74 3569.77 766.511 3852.53 664.996C4206.1 538.059 4544.86 508.508 4719.27 690.839C4855.94 833.716 4658.33 1269.72 4493.08 1486.92L-2.37913 1516C-52.8647 1368.39 -280.414 795.553 -17.7213 635.914C350.647 345.096 833.701 764.968 1176.47 690.839C1784.78 559.278 1706.03 800.724 2160.54 797.954Z" fill="url(#paint1_linear)"/>
<path id="Vector_6" d="M2703.53 2534.64C2742.22 2539.73 2782.32 2545 2861 2545C2909.89 2545 2958.17 2548.09 3006.6 2554.6L3006.93 2554.64C3045.62 2559.73 3085.72 2565 3164.4 2565C3243.08 2565 3283.18 2559.73 3321.87 2554.64L3322.2 2554.6C3359.4 2549.6 3394.5 2545 3466.8 2545C3538.53 2545 3573.64 2549.63 3610.52 2554.48L3611.4 2554.6L3611.73 2554.64C3650.43 2559.73 3690.52 2565 3769.2 2565C3847.88 2565 3887.98 2559.73 3926.67 2554.64L3927 2554.6C3964.2 2549.6 3999.3 2545 4071.6 2545C4143.33 2545 4178.44 2549.63 4215.32 2554.48L4216.2 2554.6L4216.53 2554.64C4255.22 2559.73 4295.32 2565 4374 2565V1193C4302.27 1193 4267.16 1188.37 4230.28 1183.52L4229.4 1183.4L4229.07 1183.36C4190.38 1178.27 4150.28 1173 4071.6 1173C3992.92 1173 3952.82 1178.27 3914.13 1183.36L3913.8 1183.4C3876.6 1188.4 3841.5 1193 3769.2 1193C3697.47 1193 3662.36 1188.37 3625.48 1183.52L3624.6 1183.4L3624.27 1183.36C3585.58 1178.27 3545.48 1173 3466.8 1173C3388.12 1173 3348.02 1178.27 3309.33 1183.36L3309 1183.4C3271.8 1188.4 3236.7 1193 3164.4 1193C3092.1 1193 3057 1188.4 3019.8 1183.4L3019.47 1183.36C2980.78 1178.27 2940.68 1173 2862 1173H2861C2813.27 1173 2756 1181.36 2716.07 1181.36C2676.15 1181.36 2637.28 1171 2558.6 1171C2479.92 1171 2439.82 1176.27 2401.12 1181.36L2400.8 1181.4C2363.6 1186.4 2328.5 1191 2256.2 1191C2184.47 1191 2149.36 1186.37 2112.48 1181.52L2111.27 1181.36C2072.57 1176.27 2032.48 1171 1953.8 1171C1875.12 1171 1835.02 1176.27 1796.32 1181.36L1796 1181.4C1758.8 1186.4 1723.7 1191 1651.4 1191C1579.1 1191 1544 1186.4 1506.8 1181.4L1506.47 1181.36C1467.77 1176.27 1427.68 1171 1349 1171H1358C1286.27 1171 1251.16 1166.37 1214.28 1161.52L1213.07 1161.36C1174.38 1156.27 1134.28 1151 1055.6 1151C976.92 1151 936.825 1156.27 898.125 1161.36L897.8 1161.4C860.6 1166.4 825.5 1171 753.2 1171C681.473 1171 646.358 1166.37 609.483 1161.52L608.275 1161.36C569.576 1156.27 529.48 1151 450.8 1151C372.12 1151 332.024 1156.27 293.325 1161.36L293 1161.4C255.8 1166.4 220.7 1171 148.4 1171C76.1 1171 41 1166.4 3.8 1161.4L3.47495 1161.36C-35.2242 1156.27 -75.3203 1151 -154 1151V2505C-81.7 2505 -46.6 2509.6 -9.39999 2514.6L-9.07411 2514.64C29.6248 2519.73 69.7209 2525 148.4 2525C227.079 2525 267.175 2519.73 305.874 2514.64L306.2 2514.6C343.4 2509.6 378.5 2505 450.8 2505C522.528 2505 557.642 2509.63 594.517 2514.48L595.726 2514.64C634.425 2519.73 674.521 2525 753.2 2525C831.879 2525 871.975 2519.73 910.674 2514.64L911 2514.6C948.2 2509.6 983.3 2505 1055.6 2505C1127.33 2505 1162.44 2509.63 1199.32 2514.48L1200.53 2514.64C1239.22 2519.73 1279.32 2525 1358 2525H1349C1421.3 2525 1456.4 2529.6 1493.6 2534.6L1493.93 2534.64C1532.62 2539.73 1572.72 2545 1651.4 2545C1730.08 2545 1770.17 2539.73 1808.87 2534.64L1809.2 2534.6C1846.4 2529.6 1881.5 2525 1953.8 2525C2025.53 2525 2060.64 2529.63 2097.52 2534.48L2098.73 2534.64C2137.42 2539.73 2177.52 2545 2256.2 2545C2334.88 2545 2374.97 2539.73 2413.67 2534.64L2414 2534.6C2451.2 2529.6 2486.3 2525 2558.6 2525C2630.33 2525 2665.44 2529.63 2702.32 2534.48L2703.53 2534.64Z" fill="url(#paint2_linear)"/>
<path id="Vector_7" fill-rule="evenodd" clip-rule="evenodd" d="M0 1200.9V1160.9C1.16023 1161.05 2.31821 1161.21 3.47495 1161.36L3.8 1161.4C41 1166.4 76.1 1171 148.4 1171C220.7 1171 255.8 1166.4 293 1161.4L293.325 1161.36C332.024 1156.27 372.12 1151 450.8 1151C529.48 1151 569.576 1156.27 608.275 1161.36L609.483 1161.52C646.358 1166.37 681.473 1171 753.2 1171C825.5 1171 860.6 1166.4 897.8 1161.4L898.125 1161.36C936.825 1156.27 976.92 1151 1055.6 1151C1134.28 1151 1174.38 1156.27 1213.07 1161.36L1214.28 1161.52C1251.16 1166.37 1286.27 1171 1358 1171H1349C1427.68 1171 1467.77 1176.27 1506.47 1181.36L1506.8 1181.4C1544 1186.4 1579.1 1191 1651.4 1191C1723.7 1191 1758.8 1186.4 1796 1181.4L1796.32 1181.36C1835.02 1176.27 1875.12 1171 1953.8 1171C2032.48 1171 2072.57 1176.27 2111.27 1181.36L2112.48 1181.52C2149.36 1186.37 2184.47 1191 2256.2 1191C2328.5 1191 2363.6 1186.4 2400.8 1181.4L2401.12 1181.36C2439.82 1176.27 2479.92 1171 2558.6 1171C2604.55 1171 2636.92 1174.53 2663.85 1177.47C2683.04 1179.56 2699.47 1181.36 2716.07 1181.36C2735.15 1181.36 2758.18 1179.45 2782.24 1177.46C2808.54 1175.28 2836.07 1173 2861 1173H2862C2940.68 1173 2980.78 1178.27 3019.47 1183.36L3019.8 1183.4C3057 1188.4 3092.1 1193 3164.4 1193C3236.7 1193 3271.8 1188.4 3309 1183.4L3309.33 1183.36C3348.02 1178.27 3388.12 1173 3466.8 1173C3545.48 1173 3585.58 1178.27 3624.27 1183.36L3624.6 1183.4L3625.48 1183.52C3662.36 1188.37 3697.47 1193 3769.2 1193C3841.5 1193 3876.6 1188.4 3913.8 1183.4L3914.13 1183.36C3952.82 1178.27 3992.92 1173 4071.6 1173C4131.11 1173 4168.55 1176.02 4200 1179.69V1219.69C4168.55 1216.02 4131.11 1213 4071.6 1213C3992.92 1213 3952.82 1218.27 3914.13 1223.36L3913.8 1223.4C3876.6 1228.4 3841.5 1233 3769.2 1233C3697.47 1233 3662.36 1228.37 3625.48 1223.52L3624.6 1223.4L3624.27 1223.36C3585.58 1218.27 3545.48 1213 3466.8 1213C3388.12 1213 3348.02 1218.27 3309.33 1223.36L3309 1223.4C3271.8 1228.4 3236.7 1233 3164.4 1233C3092.1 1233 3057 1228.4 3019.8 1223.4L3019.47 1223.36C2980.78 1218.27 2940.68 1213 2862 1213H2861C2836.07 1213 2808.54 1215.28 2782.24 1217.46C2758.18 1219.45 2735.15 1221.36 2716.07 1221.36C2699.47 1221.36 2683.04 1219.56 2663.85 1217.47C2636.92 1214.53 2604.55 1211 2558.6 1211C2479.92 1211 2439.82 1216.27 2401.12 1221.36L2400.8 1221.4C2363.6 1226.4 2328.5 1231 2256.2 1231C2184.47 1231 2149.36 1226.37 2112.48 1221.52L2111.27 1221.36C2072.57 1216.27 2032.48 1211 1953.8 1211C1875.12 1211 1835.02 1216.27 1796.32 1221.36L1796 1221.4C1758.8 1226.4 1723.7 1231 1651.4 1231C1579.1 1231 1544 1226.4 1506.8 1221.4L1506.47 1221.36C1467.77 1216.27 1427.68 1211 1349 1211H1358C1286.27 1211 1251.16 1206.37 1214.28 1201.52L1213.07 1201.36C1174.38 1196.27 1134.28 1191 1055.6 1191C976.92 1191 936.825 1196.27 898.125 1201.36L897.8 1201.4C860.6 1206.4 825.5 1211 753.2 1211C681.473 1211 646.358 1206.37 609.483 1201.52L608.275 1201.36C569.576 1196.27 529.48 1191 450.8 1191C372.12 1191 332.024 1196.27 293.325 1201.36L293 1201.4C255.8 1206.4 220.7 1211 148.4 1211C76.1 1211 41 1206.4 3.8 1201.4L3.47495 1201.36C2.31821 1201.21 1.16023 1201.05 0 1200.9Z" fill="url(#paint3_linear)"/>
<path id="Vector_8" fill-rule="evenodd" clip-rule="evenodd" d="M0 1160.9V1120.9C1.16023 1121.05 2.31821 1121.21 3.47495 1121.36L3.8 1121.4C41 1126.4 76.1 1131 148.4 1131C220.7 1131 255.8 1126.4 293 1121.4L293.325 1121.36C332.024 1116.27 372.12 1111 450.8 1111C529.48 1111 569.576 1116.27 608.275 1121.36L609.483 1121.52C646.358 1126.37 681.473 1131 753.2 1131C825.5 1131 860.6 1126.4 897.8 1121.4L898.125 1121.36C936.825 1116.27 976.92 1111 1055.6 1111C1134.28 1111 1174.38 1116.27 1213.07 1121.36L1214.28 1121.52C1251.16 1126.37 1286.27 1131 1358 1131H1349C1427.68 1131 1467.77 1136.27 1506.47 1141.36L1506.8 1141.4C1544 1146.4 1579.1 1151 1651.4 1151C1723.7 1151 1758.8 1146.4 1796 1141.4L1796.32 1141.36C1835.02 1136.27 1875.12 1131 1953.8 1131C2032.48 1131 2072.57 1136.27 2111.27 1141.36L2112.48 1141.52C2149.36 1146.37 2184.47 1151 2256.2 1151C2328.5 1151 2363.6 1146.4 2400.8 1141.4L2401.12 1141.36C2439.82 1136.27 2479.92 1131 2558.6 1131C2604.55 1131 2636.92 1134.53 2663.85 1137.47C2683.04 1139.56 2699.47 1141.36 2716.07 1141.36C2735.15 1141.36 2758.18 1139.45 2782.24 1137.46C2808.54 1135.28 2836.07 1133 2861 1133H2862C2940.68 1133 2980.78 1138.27 3019.47 1143.36L3019.8 1143.4C3057 1148.4 3092.1 1153 3164.4 1153C3236.7 1153 3271.8 1148.4 3309 1143.4L3309.33 1143.36C3348.02 1138.27 3388.12 1133 3466.8 1133C3545.48 1133 3585.58 1138.27 3624.27 1143.36L3624.6 1143.4L3625.48 1143.52C3662.36 1148.37 3697.47 1153 3769.2 1153C3841.5 1153 3876.6 1148.4 3913.8 1143.4L3914.13 1143.36C3952.82 1138.27 3992.92 1133 4071.6 1133C4131.11 1133 4168.55 1136.02 4200 1139.69V1179.69C4168.55 1176.02 4131.11 1173 4071.6 1173C3992.92 1173 3952.82 1178.27 3914.13 1183.36L3913.8 1183.4C3876.6 1188.4 3841.5 1193 3769.2 1193C3697.47 1193 3662.36 1188.37 3625.48 1183.52L3624.6 1183.4L3624.27 1183.36C3585.58 1178.27 3545.48 1173 3466.8 1173C3388.12 1173 3348.02 1178.27 3309.33 1183.36L3309 1183.4C3271.8 1188.4 3236.7 1193 3164.4 1193C3092.1 1193 3057 1188.4 3019.8 1183.4L3019.47 1183.36C2980.78 1178.27 2940.68 1173 2862 1173H2861C2836.07 1173 2808.54 1175.28 2782.24 1177.46C2758.18 1179.45 2735.15 1181.36 2716.07 1181.36C2699.47 1181.36 2683.04 1179.56 2663.85 1177.47C2636.92 1174.53 2604.55 1171 2558.6 1171C2479.92 1171 2439.82 1176.27 2401.12 1181.36L2400.8 1181.4C2363.6 1186.4 2328.5 1191 2256.2 1191C2184.47 1191 2149.36 1186.37 2112.48 1181.52L2111.27 1181.36C2072.57 1176.27 2032.48 1171 1953.8 1171C1875.12 1171 1835.02 1176.27 1796.32 1181.36L1796 1181.4C1758.8 1186.4 1723.7 1191 1651.4 1191C1579.1 1191 1544 1186.4 1506.8 1181.4L1506.47 1181.36C1467.77 1176.27 1427.68 1171 1349 1171H1358C1286.27 1171 1251.16 1166.37 1214.28 1161.52L1213.07 1161.36C1174.38 1156.27 1134.28 1151 1055.6 1151C976.92 1151 936.825 1156.27 898.125 1161.36L897.8 1161.4C860.6 1166.4 825.5 1171 753.2 1171C681.473 1171 646.358 1166.37 609.483 1161.52L608.275 1161.36C569.576 1156.27 529.48 1151 450.8 1151C372.12 1151 332.024 1156.27 293.325 1161.36L293 1161.4C255.8 1166.4 220.7 1171 148.4 1171C76.1 1171 41 1166.4 3.8 1161.4L3.47495 1161.36C2.31821 1161.21 1.16023 1161.05 0 1160.9Z" fill="url(#paint4_linear)"/>
</g>
</g>
<defs>
<linearGradient id="paint0_linear" x1="-2067.58" y1="322.853" x2="-1864.84" y2="1658.58" gradientUnits="userSpaceOnUse">
<stop stop-color="#4A154B"/>
<stop offset="1" stop-color="#8313DD"/>
</linearGradient>
<linearGradient id="paint1_linear" x1="2369.96" y1="521.404" x2="2268.33" y2="1449.73" gradientUnits="userSpaceOnUse">
<stop stop-color="#36C5F0"/>
<stop offset="1" stop-color="#6558F5"/>
</linearGradient>
<linearGradient id="paint2_linear" x1="2594" y1="1254" x2="840.5" y2="1893" gradientUnits="userSpaceOnUse">
<stop stop-color="#4A154B"/>
<stop offset="1" stop-color="#8314DE"/>
</linearGradient>
<linearGradient id="paint3_linear" x1="2.77799e-05" y1="1175.5" x2="4200" y2="1192" gradientUnits="userSpaceOnUse">
<stop stop-color="#3034AB"/>
<stop offset="0.348958" stop-color="#5526B5"/>
<stop offset="0.666667" stop-color="#9222EE"/>
<stop offset="1" stop-color="#8314DE"/>
</linearGradient>
<linearGradient id="paint4_linear" x1="2.77799e-05" y1="1135.5" x2="4200" y2="1152" gradientUnits="userSpaceOnUse">
<stop stop-color="#6659F6"/>
<stop offset="0.348958" stop-color="#5346E6"/>
<stop offset="0.666667" stop-color="#6569ED"/>
<stop offset="1" stop-color="#647CE3"/>
</linearGradient>
<clipPath id="clip0">
<rect width="4200" height="2400" fill="white"/>
</clipPath>
</defs>
</svg>
